<?xml version="1.0" encoding="UTF-8"?>
<svg xmlns="http://www.w3.org/2000/svg" xmlns:xlink="http://www.w3.org/1999/xlink" width="187.5pt" height="187.499995pt" viewBox="0 0 187.5 187.499995" version="1.2">
<defs>
<clipPath id="clip1">
  <path d="M 0 0 L 187 0 L 187 187 L 0 187 Z M 0 0 "/>
</clipPath>
</defs>
<g id="surface1">
<path style=" stroke:none;fill-rule:nonzero;fill:rgb(98.039246%,87.449646%,65.879822%);fill-opacity:1;" d="M 181.984375 93.75 C 181.984375 95.195312 181.949219 96.636719 181.878906 98.078125 C 181.808594 99.523438 181.703125 100.960938 181.558594 102.398438 C 181.417969 103.835938 181.242188 105.269531 181.03125 106.695312 C 180.820312 108.125 180.570312 109.546875 180.289062 110.964844 C 180.007812 112.378906 179.691406 113.789062 179.339844 115.1875 C 178.988281 116.589844 178.605469 117.980469 178.1875 119.363281 C 177.765625 120.746094 177.3125 122.117188 176.828125 123.476562 C 176.339844 124.835938 175.820312 126.183594 175.269531 127.515625 C 174.714844 128.851562 174.132812 130.171875 173.515625 131.476562 C 172.894531 132.78125 172.246094 134.070312 171.566406 135.34375 C 170.886719 136.617188 170.175781 137.875 169.433594 139.113281 C 168.691406 140.351562 167.917969 141.570312 167.113281 142.769531 C 166.3125 143.972656 165.480469 145.152344 164.621094 146.3125 C 163.761719 147.472656 162.871094 148.609375 161.957031 149.726562 C 161.039062 150.84375 160.097656 151.933594 159.128906 153.003906 C 158.160156 154.074219 157.164062 155.121094 156.140625 156.140625 C 155.121094 157.164062 154.074219 158.160156 153.003906 159.128906 C 151.933594 160.097656 150.84375 161.039062 149.726562 161.957031 C 148.609375 162.871094 147.472656 163.761719 146.3125 164.621094 C 145.152344 165.480469 143.972656 166.3125 142.769531 167.113281 C 141.570312 167.917969 140.351562 168.691406 139.113281 169.433594 C 137.875 170.175781 136.617188 170.886719 135.34375 171.566406 C 134.070312 172.246094 132.78125 172.894531 131.476562 173.515625 C 130.171875 174.132812 128.851562 174.714844 127.515625 175.269531 C 126.183594 175.820312 124.835938 176.339844 123.476562 176.828125 C 122.117188 177.3125 120.746094 177.765625 119.363281 178.1875 C 117.980469 178.605469 116.589844 178.988281 115.1875 179.339844 C 113.789062 179.691406 112.378906 180.007812 110.964844 180.289062 C 109.546875 180.570312 108.125 180.816406 106.695312 181.03125 C 105.269531 181.242188 103.835938 181.417969 102.398438 181.558594 C 100.960938 181.703125 99.523438 181.808594 98.078125 181.878906 C 96.636719 181.949219 95.195312 181.984375 93.75 181.984375 C 92.304688 181.984375 90.863281 181.949219 89.421875 181.878906 C 87.976562 181.808594 86.539062 181.703125 85.101562 181.558594 C 83.664062 181.417969 82.230469 181.242188 80.804688 181.03125 C 79.375 180.816406 77.953125 180.570312 76.535156 180.289062 C 75.121094 180.007812 73.710938 179.691406 72.3125 179.339844 C 70.910156 178.988281 69.519531 178.605469 68.136719 178.1875 C 66.753906 177.765625 65.382812 177.3125 64.023438 176.828125 C 62.664062 176.339844 61.316406 175.820312 59.984375 175.269531 C 58.648438 174.714844 57.328125 174.132812 56.023438 173.515625 C 54.71875 172.894531 53.429688 172.246094 52.15625 171.566406 C 50.882812 170.886719 49.625 170.175781 48.386719 169.433594 C 47.148438 168.691406 45.929688 167.917969 44.730469 167.113281 C 43.527344 166.3125 42.347656 165.480469 41.1875 164.621094 C 40.027344 163.761719 38.890625 162.871094 37.773438 161.957031 C 36.65625 161.039062 35.566406 160.097656 34.496094 159.128906 C 33.425781 158.160156 32.378906 157.164062 31.359375 156.140625 C 30.335938 155.121094 29.339844 154.074219 28.371094 153.003906 C 27.402344 151.933594 26.460938 150.84375 25.542969 149.726562 C 24.628906 148.609375 23.738281 147.472656 22.878906 146.3125 C 22.019531 145.152344 21.1875 143.972656 20.386719 142.769531 C 19.582031 141.570312 18.808594 140.351562 18.066406 139.113281 C 17.324219 137.875 16.613281 136.617188 15.933594 135.34375 C 15.253906 134.070312 14.605469 132.78125 13.984375 131.476562 C 13.367188 130.171875 12.785156 128.851562 12.230469 127.515625 C 11.679688 126.183594 11.160156 124.835938 10.671875 123.476562 C 10.1875 122.117188 9.734375 120.746094 9.3125 119.363281 C 8.894531 117.980469 8.511719 116.589844 8.160156 115.1875 C 7.808594 113.789062 7.492188 112.378906 7.210938 110.964844 C 6.929688 109.546875 6.679688 108.125 6.46875 106.695312 C 6.257812 105.269531 6.082031 103.835938 5.941406 102.398438 C 5.796875 100.960938 5.691406 99.523438 5.621094 98.078125 C 5.550781 96.636719 5.515625 95.195312 5.515625 93.75 C 5.515625 92.304688 5.550781 90.863281 5.621094 89.421875 C 5.691406 87.976562 5.796875 86.539062 5.941406 85.101562 C 6.082031 83.664062 6.257812 82.230469 6.46875 80.804688 C 6.679688 79.375 6.929688 77.953125 7.210938 76.535156 C 7.492188 75.121094 7.808594 73.710938 8.160156 72.308594 C 8.511719 70.910156 8.894531 69.519531 9.3125 68.136719 C 9.734375 66.753906 10.1875 65.382812 10.671875 64.023438 C 11.160156 62.664062 11.679688 61.316406 12.230469 59.984375 C 12.785156 58.648438 13.367188 57.328125 13.984375 56.023438 C 14.605469 54.71875 15.253906 53.429688 15.933594 52.15625 C 16.613281 50.882812 17.324219 49.625 18.066406 48.386719 C 18.808594 47.148438 19.582031 45.929688 20.386719 44.730469 C 21.1875 43.527344 22.019531 42.347656 22.878906 41.1875 C 23.738281 40.027344 24.628906 38.890625 25.542969 37.773438 C 26.460938 36.65625 27.402344 35.566406 28.371094 34.496094 C 29.339844 33.425781 30.335938 32.378906 31.359375 31.359375 C 32.378906 30.335938 33.425781 29.339844 34.496094 28.371094 C 35.566406 27.402344 36.65625 26.460938 37.773438 25.542969 C 38.890625 24.628906 40.027344 23.738281 41.1875 22.878906 C 42.347656 22.019531 43.527344 21.1875 44.730469 20.386719 C 45.929688 19.582031 47.148438 18.808594 48.386719 18.066406 C 49.625 17.324219 50.882812 16.613281 52.15625 15.933594 C 53.429688 15.253906 54.71875 14.605469 56.023438 13.984375 C 57.328125 13.367188 58.648438 12.785156 59.984375 12.230469 C 61.316406 11.679688 62.664062 11.160156 64.023438 10.671875 C 65.382812 10.1875 66.753906 9.734375 68.136719 9.3125 C 69.519531 8.894531 70.910156 8.511719 72.3125 8.160156 C 73.710938 7.808594 75.121094 7.492188 76.535156 7.210938 C 77.953125 6.929688 79.375 6.679688 80.804688 6.46875 C 82.230469 6.257812 83.664062 6.082031 85.101562 5.941406 C 86.539062 5.796875 87.976562 5.691406 89.421875 5.621094 C 90.863281 5.550781 92.304688 5.515625 93.75 5.515625 C 95.195312 5.515625 96.636719 5.550781 98.078125 5.621094 C 99.523438 5.691406 100.960938 5.796875 102.398438 5.941406 C 103.835938 6.082031 105.269531 6.257812 106.695312 6.46875 C 108.125 6.679688 109.546875 6.929688 110.964844 7.210938 C 112.378906 7.492188 113.789062 7.808594 115.1875 8.160156 C 116.589844 8.511719 117.980469 8.894531 119.363281 9.3125 C 120.746094 9.734375 122.117188 10.1875 123.476562 10.671875 C 124.835938 11.160156 126.183594 11.679688 127.515625 12.230469 C 128.851562 12.785156 130.171875 13.367188 131.476562 13.984375 C 132.78125 14.605469 134.070312 15.253906 135.34375 15.933594 C 136.617188 16.613281 137.875 17.324219 139.113281 18.066406 C 140.351562 18.808594 141.570312 19.582031 142.769531 20.386719 C 143.972656 21.1875 145.152344 22.019531 146.3125 22.878906 C 147.472656 23.738281 148.609375 24.628906 149.726562 25.542969 C 150.84375 26.460938 151.933594 27.402344 153.003906 28.371094 C 154.074219 29.339844 155.121094 30.335938 156.140625 31.359375 C 157.164062 32.378906 158.160156 33.425781 159.128906 34.496094 C 160.097656 35.566406 161.039062 36.65625 161.957031 37.773438 C 162.871094 38.890625 163.761719 40.027344 164.621094 41.1875 C 165.480469 42.347656 166.3125 43.527344 167.113281 44.730469 C 167.917969 45.929688 168.691406 47.148438 169.433594 48.386719 C 170.175781 49.625 170.886719 50.882812 171.566406 52.15625 C 172.246094 53.429688 172.894531 54.71875 173.515625 56.023438 C 174.132812 57.328125 174.714844 58.648438 175.269531 59.984375 C 175.820312 61.316406 176.339844 62.664062 176.828125 64.023438 C 177.3125 65.382812 177.765625 66.753906 178.1875 68.136719 C 178.605469 69.519531 178.988281 70.910156 179.339844 72.3125 C 179.691406 73.710938 180.007812 75.121094 180.289062 76.535156 C 180.570312 77.953125 180.816406 79.375 181.03125 80.804688 C 181.242188 82.230469 181.417969 83.664062 181.558594 85.101562 C 181.703125 86.539062 181.808594 87.976562 181.878906 89.421875 C 181.949219 90.863281 181.984375 92.304688 181.984375 93.75 Z M 181.984375 93.75 "/>
<g clip-path="url(#clip1)" clip-rule="nonzero">
<path style=" stroke:none;fill-rule:nonzero;fill:rgb(19.999695%,19.999695%,19.999695%);fill-opacity:1;" d="M 93.75 187.5 C 41.910156 187.5 0 145.589844 0 93.75 C 0 41.910156 41.910156 0 93.75 0 C 145.589844 0 187.5 41.910156 187.5 93.75 C 187.5 145.589844 145.589844 187.5 93.75 187.5 Z M 93.75 11.03125 C 47.976562 11.03125 11.03125 47.976562 11.03125 93.75 C 11.03125 139.523438 47.976562 176.46875 93.75 176.46875 C 139.523438 176.46875 176.46875 139.523438 176.46875 93.75 C 176.46875 47.976562 139.523438 11.03125 93.75 11.03125 Z M 93.75 11.03125 "/>
</g>
<path style=" stroke:none;fill-rule:nonzero;fill:rgb(73.329163%,65.489197%,49.409485%);fill-opacity:1;" d="M 93.75 165.441406 C 50.183594 165.441406 14.339844 131.25 11.582031 88.234375 C 11.582031 89.890625 11.03125 92.09375 11.03125 93.75 C 11.03125 139.523438 47.976562 176.46875 93.75 176.46875 C 139.523438 176.46875 176.46875 139.523438 176.46875 93.75 C 176.46875 92.09375 176.46875 89.890625 175.917969 88.234375 C 173.160156 131.25 137.316406 165.441406 93.75 165.441406 Z M 93.75 165.441406 "/>
<path style=" stroke:none;fill-rule:nonzero;fill:rgb(94.119263%,35.688782%,29.019165%);fill-opacity:1;" d="M 71.691406 148.898438 C 68.933594 148.898438 66.175781 147.792969 63.96875 145.589844 C 59.558594 141.175781 59.558594 134.558594 63.96875 130.148438 L 100.367188 93.75 L 63.96875 57.351562 C 59.558594 52.941406 59.558594 46.324219 63.96875 41.910156 C 68.382812 37.5 75 37.5 79.410156 41.910156 L 123.53125 86.03125 C 127.941406 90.441406 127.941406 97.058594 123.53125 101.46875 L 79.410156 145.589844 C 77.207031 147.792969 74.449219 148.898438 71.691406 148.898438 Z M 71.691406 148.898438 "/>
<path style=" stroke:none;fill-rule:nonzero;fill:rgb(19.999695%,19.999695%,19.999695%);fill-opacity:1;" d="M 71.691406 154.410156 C 67.28125 154.410156 62.867188 152.757812 60.109375 149.449219 C 56.800781 146.691406 55.148438 142.28125 55.148438 137.867188 C 55.148438 133.457031 56.800781 129.042969 60.109375 126.285156 L 92.648438 93.75 L 60.109375 61.214844 C 56.800781 58.457031 55.148438 54.042969 55.148438 49.632812 C 55.148438 45.21875 56.800781 40.808594 60.109375 38.050781 C 66.175781 31.984375 77.207031 31.984375 83.273438 38.050781 L 127.390625 82.167969 C 130.699219 85.476562 132.351562 89.339844 132.351562 93.75 C 132.351562 98.160156 130.699219 102.574219 127.390625 105.332031 L 83.273438 149.449219 C 80.515625 152.757812 76.101562 154.410156 71.691406 154.410156 Z M 71.691406 44.117188 C 70.035156 44.117188 68.933594 44.667969 67.832031 45.773438 C 66.726562 46.875 66.175781 47.976562 66.175781 49.632812 C 66.175781 51.285156 66.726562 52.390625 67.832031 53.492188 L 108.089844 93.75 L 67.832031 134.007812 C 66.726562 135.109375 66.175781 136.214844 66.175781 137.867188 C 66.175781 139.523438 66.726562 140.625 67.832031 141.726562 C 70.035156 143.933594 73.34375 143.933594 75.550781 141.726562 L 119.667969 97.609375 C 120.773438 96.507812 121.324219 95.40625 121.324219 93.75 C 121.324219 92.09375 120.773438 90.992188 119.667969 89.890625 L 75.550781 45.773438 C 74.449219 44.667969 73.34375 44.117188 71.691406 44.117188 Z M 71.691406 44.117188 "/>
</g>
</svg>
